<svg viewBox="-0.9459459459459456 -1.9000000000000004 104.5945945945946 106.65" version="1.1" xmlns="http://www.w3.org/2000/svg" style="max-height: 500px" width="104.5945945945946" height="106.65">
 <path fill-rule="evenodd" d="m21.402 21.891h-15.012c-0.69141 0-1.25-0.55859-1.25-1.2461v-8.1328c0.015625-5.168 4.2031-9.3555 9.375-9.375h70.328c2.6484 0.011719 4.7969 2.1562 4.8047 4.8008v70.172h3.9609c0.33203 0 0.64844 0.12891 0.88281 0.36328 0.23437 0.23438 0.36719 0.55078 0.36719 0.88281v8.1328l-0.003906-0.003906c-0.015625 5.1719-4.2031 9.3594-9.375 9.375h-54.699c-5.1719-0.015625-9.3594-4.2031-9.375-9.375v-65.594zm29.062 49.176 30.504 0.003906c0.6875 0 1.25-0.5625 1.25-1.25s-0.5625-1.25-1.25-1.25h-30.504c-0.6875 0-1.2461 0.5625-1.2461 1.25s0.55859 1.25 1.2461 1.25zm0-10.188 30.504 0.003906c0.33984 0.011719 0.66797-0.11328 0.91406-0.34766 0.24609-0.23828 0.38281-0.5625 0.38281-0.90234 0-0.33984-0.13672-0.66406-0.38281-0.89844-0.24609-0.23438-0.57422-0.35938-0.91406-0.34766h-30.504c-0.33984-0.011719-0.66797 0.11328-0.91406 0.34766-0.24609 0.23438-0.38281 0.55859-0.38281 0.89844 0 0.33984 0.13672 0.66406 0.38281 0.90234 0.24609 0.23438 0.57422 0.35938 0.91406 0.34766zm0-9.0547 30.504 0.003906c0.33984 0.011719 0.66797-0.11328 0.91406-0.34766 0.24609-0.23828 0.38281-0.5625 0.38281-0.90234s-0.13672-0.66406-0.38281-0.89844c-0.24609-0.23438-0.57422-0.35938-0.91406-0.34766h-30.504c-0.33984-0.011719-0.66797 0.11328-0.91406 0.34766-0.24609 0.23437-0.38281 0.55859-0.38281 0.89844s0.13672 0.66406 0.38281 0.90234c0.24609 0.23438 0.57422 0.35938 0.91406 0.34766zm0-10.188 30.504 0.003906c0.6875 0 1.25-0.55859 1.25-1.25 0-0.6875-0.5625-1.2461-1.25-1.2461h-30.504c-0.6875 0-1.2461 0.55859-1.2461 1.2461 0 0.69141 0.55859 1.25 1.2461 1.25zm0-9.0547 30.504 0.003907c0.6875 0 1.25-0.55859 1.25-1.2461 0-0.69141-0.5625-1.25-1.25-1.25h-30.504c-0.6875 0-1.2461 0.55859-1.2461 1.25 0 0.6875 0.55859 1.2461 1.2461 1.2461zm0-10.188 30.504 0.003907c0.33984 0.011718 0.66797-0.11328 0.91406-0.34766 0.24609-0.23438 0.38281-0.55859 0.38281-0.89844s-0.13672-0.66406-0.38281-0.90234c-0.24609-0.23438-0.57422-0.35938-0.91406-0.34375h-30.504c-0.33984-0.015625-0.66797 0.10938-0.91406 0.34375-0.24609 0.23828-0.38281 0.5625-0.38281 0.90234s0.13672 0.66406 0.38281 0.89844c0.24609 0.23438 0.57422 0.35938 0.91406 0.34766zm-22.805 43.199 5.1094 5.1094c0.30078 0.30078 0.73047 0.42578 1.1445 0.33594 0.41406-0.089843 0.75391-0.38281 0.90625-0.78125 1.9297-3.9922 4.7109-7.5273 8.7578-9.5078 0.61719-0.30078 0.87109-1.0469 0.57031-1.6602-0.30078-0.61719-1.0469-0.875-1.6641-0.57031-4.0664 1.9961-7.0078 5.293-9.1602 9.2148l-3.9062-3.9062h0.003906c-0.22656-0.26953-0.55469-0.43359-0.90234-0.44922-0.35156-0.015625-0.69141 0.11719-0.94141 0.36328-0.24609 0.25-0.37891 0.58984-0.36328 0.94141 0.015625 0.34766 0.17969 0.67578 0.44922 0.90234zm0-19.242 5.1094 5.1094c0.30078 0.30078 0.73047 0.42578 1.1445 0.33594 0.41406-0.089844 0.75391-0.38281 0.90625-0.78125 1.9297-3.9883 4.7109-7.5234 8.7578-9.5078 0.30469-0.14062 0.54297-0.39453 0.65625-0.71094s0.09375-0.66406-0.054687-0.96484c-0.14844-0.30469-0.41016-0.53125-0.73047-0.63672-0.31641-0.10156-0.66406-0.074218-0.96484 0.082032-4.0664 1.9922-7.0078 5.2891-9.1602 9.2109l-3.9062-3.9062 0.003906 0.003907c-0.49609-0.41406-1.2266-0.38281-1.6836 0.074218-0.45703 0.45703-0.48828 1.1875-0.074219 1.6836zm0-19.242 5.1094 5.1172c0.30078 0.30078 0.73047 0.42578 1.1445 0.33594 0.41406-0.089844 0.75391-0.38281 0.90625-0.78125 1.9297-3.9922 4.7109-7.5273 8.7578-9.5078 0.61719-0.30078 0.87109-1.0469 0.57031-1.6641-0.30078-0.61328-1.0469-0.87109-1.6641-0.57031-4.0664 1.9961-7.0078 5.293-9.1602 9.2148l-3.9062-3.9062 0.003906 0.003906c-0.49609-0.41406-1.2266-0.38281-1.6836 0.074219s-0.48828 1.1875-0.074219 1.6836zm-20.023-7.7109h13.766v-6.8867c0.03125-1.8438-0.67969-3.625-1.9766-4.9414-1.293-1.3164-3.0625-2.0586-4.9062-2.0586-1.8477 0-3.6172 0.74219-4.9102 2.0586-1.293 1.3164-2.0039 3.0977-1.9727 4.9414zm13.238-13.77c1.9219 1.7734 3.0195 4.2695 3.0234 6.8828v74.973c-0.03125 1.8477 0.67969 3.6289 1.9766 4.9453 1.293 1.3164 3.0625 2.0586 4.9062 2.0586 1.8477 0 3.6172-0.74219 4.9102-2.0586 1.293-1.3164 2.0039-3.0977 1.9727-4.9453v-8.1289c0-0.6875 0.5625-1.2461 1.25-1.2461h48.242v-70.172c-0.003906-1.2734-1.0352-2.3047-2.3125-2.3086zm16.266 88.742h48.34c3.7969-0.015625 6.8711-3.0898 6.8867-6.8867v-6.8828h-52.207v6.8828c0 2.6172-1.0977 5.1133-3.0234 6.8867z"/>
<text fill="#000000" font-family="Arbeit Regular, Helvetica, Arial-Unicode, Arial, Sans-serif" font-weight="bold" font-size="5.0" y="117.5" x="0.0">Created by SUCI UTOMO</text><text fill="#000000" font-family="Arbeit Regular, Helvetica, Arial-Unicode, Arial, Sans-serif" font-weight="bold" font-size="5.0" y="122.5" x="0.0">from Noun Project</text></svg>