<svg viewBox="-5 -10 112.16216216216216 115.02" version="1.1" xmlns="http://www.w3.org/2000/svg" style="max-height: 500px" width="112.16216216216216" height="115.02">
 <path fill-rule="evenodd" d="m50 15v3.25c-9.1484 1.8516-17.074 7.0508-22.5 14.25h-12.5c-1.375 0-2.5 1.125-2.5 2.5s1.125 2.5 2.5 2.5h9.3242c-0.85156 1.6016-1.5742 3.2734-2.1992 5h-12.125c-1.375 0-2.5 1.125-2.5 2.5s1.125 2.5 2.5 2.5h10.75c-0.32422 1.625-0.55078 3.3008-0.67578 5h-17.574c-1.375 0-2.5 1.125-2.5 2.5s1.125 2.5 2.5 2.5h17.574c0.125 1.6992 0.35156 3.375 0.67578 5h-10.75c-1.375 0-2.5 1.125-2.5 2.5s1.125 2.5 2.5 2.5h12.125c0.625 1.7266 1.3516 3.3984 2.1992 5h-9.3242c-1.375 0-2.5 1.125-2.5 2.5s1.125 2.5 2.5 2.5h12.5c6.8516 9.1016 17.727 15 30 15 3.3984 0 6.6758-0.44922 9.8242-1.3008 3.0234 5.25 8.6992 8.8008 15.176 8.8008 9.6484 0 17.5-7.8516 17.5-17.5 0-5.8984-2.9258-11.125-7.3984-14.301 1.5508-4.1016 2.3984-8.5508 2.3984-13.199 0-18.125-12.898-33.273-30-36.75v-3.25h2.5c4.1484 0 7.5-3.3516 7.5-7.5s-3.3516-7.5-7.5-7.5h-20c-4.1484 0-7.5 3.3516-7.5 7.5s3.3516 7.5 7.5 7.5zm32.5 55c6.8984 0 12.5 5.6016 12.5 12.5s-5.6016 12.5-12.5 12.5-12.5-5.6016-12.5-12.5 5.6016-12.5 12.5-12.5zm-6.7734 14.273 5 5c0.57422 0.57422 1.375 0.82422 2.1758 0.69922 0.80078-0.125 1.4766-0.625 1.8242-1.3516l5-10c0.625-1.2266 0.125-2.75-1.125-3.3516-1.2266-0.625-2.75-0.125-3.3516 1.125l-3.4492 6.8984-2.5508-2.5508c-0.97656-0.97656-2.5508-0.97656-3.5508 0-0.97656 0.97656-0.97656 2.5508 0 3.5508zm12.375-18.352c1.2266-3.3984 1.875-7.1016 1.875-10.926 0-17.926-14.574-32.5-32.5-32.5-17.926 0-32.5 14.574-32.5 32.5 0 17.926 14.574 32.5 32.5 32.5 2.75 0 5.4258-0.35156 7.9766-0.97656-0.30078-1.3008-0.47656-2.625-0.47656-4.0234 0-0.35156 0-0.69922 0.023438-1.0508-2.3984 0.67578-4.9258 1.0508-7.5234 1.0508-15.176 0-27.5-12.324-27.5-27.5 0-15.176 12.324-27.5 27.5-27.5 15.176 0 27.5 12.324 27.5 27.5 0 3.5234-0.67578 6.8984-1.875 10 1.75 0.050781 3.4258 0.375 5 0.89844zm-10.875-0.125c1.7734-3.1992 2.7734-6.8984 2.7734-10.801 0-12.426-10.074-22.5-22.5-22.5s-22.5 10.074-22.5 22.5c0 12.426 10.074 22.5 22.5 22.5 3.1484 0 6.1484-0.64844 8.875-1.8242 2-4.6758 5.9492-8.3242 10.852-9.875zm-74.727-3.2969c1.375 0 2.5 1.125 2.5 2.5s-1.125 2.5-2.5 2.5-2.5-1.125-2.5-2.5 1.125-2.5 2.5-2.5zm52.5-25v17.5c0 0.67578 0.27344 1.3008 0.72656 1.7734l7.5 7.5c0.97656 0.97656 2.5508 0.97656 3.5508 0 0.97656-0.97656 0.97656-2.5508 0-3.5508l-6.7734-6.7734v-16.477c0-1.375-1.125-2.5-2.5-2.5s-2.5 1.125-2.5 2.5zm-52.5 5c1.375 0 2.5 1.125 2.5 2.5s-1.125 2.5-2.5 2.5-2.5-1.125-2.5-2.5 1.125-2.5 2.5-2.5zm57.5-24.926v-2.5742h-5v2.5742c0.82422-0.050781 1.6484-0.074219 2.5-0.074219s1.6758 0.023438 2.5 0.074219zm10-10.074c0 1.375-1.125 2.5-2.5 2.5h-20c-1.375 0-2.5-1.125-2.5-2.5v0c0-1.375 1.125-2.5 2.5-2.5h20c1.375 0 2.5 1.125 2.5 2.5z"/>
<text fill="#000000" font-family="Arbeit Regular, Helvetica, Arial-Unicode, Arial, Sans-serif" font-weight="bold" font-size="5.0" y="117.5" x="0.0">Created by Soni Sokell</text><text fill="#000000" font-family="Arbeit Regular, Helvetica, Arial-Unicode, Arial, Sans-serif" font-weight="bold" font-size="5.0" y="122.5" x="0.0">from Noun Project</text></svg>