<svg viewBox="-5 -10 112.16216216216216 115.02" version="1.1" xmlns="http://www.w3.org/2000/svg" style="max-height: 500px" width="112.16216216216216" height="115.02">
 <path fill-rule="evenodd" d="m21.93 22.641c0.11328-0.16797 0.25391-0.30859 0.41016-0.42188l3.8008-5.7031 0.003906 0.003906c0.11328-0.17188 0.26562-0.32812 0.44531-0.44922 0.76562-0.52734 1.8125-0.33594 2.3438 0.42969l3.9414 5.6953c0.17188 0.11328 0.32812 0.26563 0.45312 0.44531 0.99219 1.4453 1.3711 3.1406 1.1719 4.7578-0.19922 1.6211-0.97656 3.1758-2.2891 4.3398-1.3125 1.1602-2.9492 1.7422-4.582 1.7422-1.6328 0-3.2695-0.58203-4.582-1.7422-1.3125-1.1602-2.0898-2.7148-2.2891-4.3398-0.19922-1.6172 0.17969-3.3125 1.1719-4.7578zm2.4727 2.4258c-0.27734 0.60938-0.37109 1.2734-0.29297 1.9219 0.10156 0.83594 0.5 1.6367 1.1641 2.2266 0.66797 0.58984 1.5078 0.88672 2.3516 0.88672s1.6875-0.29687 2.3516-0.88672c0.66797-0.58984 1.0625-1.3906 1.1641-2.2266 0.078125-0.65234-0.015625-1.3242-0.29688-1.9336-0.12891-0.10156-0.24219-0.22266-0.33984-0.36328l-2.9336-4.2383-2.8125 4.2188c-0.10156 0.15234-0.22656 0.28516-0.36328 0.39453zm6.4453-16.551h17.719v4.6367c-0.64062 0.23438-1.2188 0.60938-1.6914 1.082-0.67578 0.67578-1.1445 1.5586-1.3047 2.543-0.14062 0.24609-0.22266 0.53516-0.22266 0.83984v4.5312c-1.082 0.74609-2.0938 1.5898-3.0195 2.5156-3.9062 3.9062-6.3203 9.3008-6.3203 15.258 0.23438 15.738 0 31.672 0 47.43 0 0.30078 0.078126 0.57813 0.21484 0.82422 0.20703 1.7266 0.99219 3.2773 2.1641 4.4453 1.168 1.168 2.7188 1.957 4.4453 2.1641 0.24219 0.13672 0.52344 0.21484 0.82422 0.21484h27.863c0.28516 0 0.55078-0.070312 0.78516-0.19141 1.8086-0.16797 3.4336-0.96875 4.6445-2.1836 1.3359-1.3359 2.1758-3.168 2.2148-5.1953 0.38281-15.734-0.23047-31.734 0.003907-47.504 0-5.9609-2.4141-11.355-6.3203-15.258-0.83594-0.83594-1.7383-1.6016-2.6992-2.2891v-4.1172c0.10156-0.21875 0.16016-0.46094 0.16016-0.71875 0-1.2891-0.52344-2.457-1.3672-3.3008-0.51562-0.51563-1.1445-0.90625-1.8516-1.1406 0-1.0938-0.015625-2.1992 0-3.2891 0-1.2852-0.52344-2.4492-1.3672-3.2969-0.84766-0.84766-2.0156-1.375-3.3008-1.375-10.504 0.15625-21.34-0.375-31.77 0.003906-1.2109 0.050781-2.3008 0.5625-3.1016 1.3633-0.84375 0.84375-1.3672 2.0117-1.3672 3.3008 0 0.93359 0.75781 1.6875 1.6875 1.6875 0.93359 0 1.6875-0.75781 1.6875-1.6875 0-0.35547 0.14453-0.67969 0.37891-0.91406s0.55469-0.37891 0.91016-0.37891zm21.098 0c3.4805 0 6.9961-0.050781 10.473 0 0.35938 0 0.68359 0.14062 0.91016 0.37109 0.23438 0.23438 0.37891 0.55859 0.37891 0.91797 0.015625 1.0703 0 2.1523 0 3.2227h-11.762zm-3.2227 9.7422c0.10547-0.21875 0.16016-0.46484 0.16016-0.72266 0-0.35547 0.14453-0.67969 0.37891-0.91406 0.11328-0.11328 0.25-0.20703 0.40234-0.27344 0.13672 0.035156 0.28125 0.054688 0.43359 0.054688h15.461c0.18359 0 0.35938-0.027344 0.52344-0.082032 0.17969 0.066407 0.33984 0.16797 0.46875 0.30078 0.13281 0.13281 0.23438 0.28906 0.30078 0.46875-0.054687 0.16406-0.082031 0.33984-0.082031 0.52344v2.7734c-2.7852-1.3125-5.8984-2.0469-9.1836-2.0469-3.1562 0-6.1562 0.67969-8.8594 1.8984v-1.9844zm-0.55078 6.082c2.7461-1.6602 5.9648-2.6172 9.4102-2.6172 5.0273 0 9.5781 2.0352 12.871 5.332 3.293 3.293 5.332 7.8438 5.332 12.871 0.23438 15.711 0 31.617 0 47.352 0 1.1562-0.46875 2.2031-1.2266 2.9609-0.75781 0.75781-1.8047 1.2266-2.9609 1.2266-0.25781 0-0.50391 0.058594-0.71875 0.16016h-26.422c-0.21875-0.10156-0.46094-0.16016-0.71875-0.16016-1.1562 0-2.2031-0.46875-2.9648-1.2266-0.75781-0.75781-1.2266-1.8047-1.2266-2.9609 0-0.25781-0.058594-0.50391-0.16016-0.71875 0-15.492-0.23047-31.156 0-46.629 0-5.0273 2.0352-9.5781 5.332-12.871 0.89453-0.89453 1.8828-1.6953 2.9453-2.3906 0.19141-0.074219 0.36719-0.1875 0.51563-0.32422zm6.1055 37.488h-1.8555v-3.0625h1.8555c0.93359 0 1.6875-0.75781 1.6875-1.6875v-2.0156h3.2227v2.0156c0 0.93359 0.75781 1.6875 1.6875 1.6875h1.8555v3.0625h-1.8555c-0.93359 0-1.6875 0.75781-1.6875 1.6875v2.0156h-3.2227v-2.0156c0-0.93359-0.75781-1.6875-1.6875-1.6875zm-1.6875 3.3789h-1.8555c-0.93359 0-1.6875-0.75781-1.6875-1.6875v-6.4414c0-0.93359 0.75781-1.6875 1.6875-1.6875h1.8555v-2.0156c0-0.93359 0.75781-1.6875 1.6875-1.6875h6.6016c0.93359 0 1.6875 0.75781 1.6875 1.6875v2.0156h1.8555c0.93359 0 1.6875 0.75781 1.6875 1.6875v6.4414c0 0.93359-0.75781 1.6875-1.6875 1.6875h-1.8555v2.0156c0 0.93359-0.75781 1.6875-1.6875 1.6875h-6.6016c-0.93359 0-1.6875-0.75781-1.6875-1.6875zm17.234-4.9922c0 3.3828-1.3711 6.4414-3.5859 8.6562-2.2148 2.2148-5.2773 3.5859-8.6562 3.5859-3.3828 0-6.4414-1.3711-8.6562-3.5859-2.2148-2.2148-3.5859-5.2773-3.5859-8.6562 0-3.3828 1.3711-6.4414 3.5859-8.6562 2.2148-2.2148 5.2773-3.5859 8.6562-3.5859 3.3828 0 6.4414 1.3711 8.6562 3.5859 2.2148 2.2148 3.5859 5.2773 3.5859 8.6562zm-1.1953-11.047c2.8281 2.8281 4.5742 6.7305 4.5742 11.047 0 4.3125-1.75 8.2188-4.5742 11.047-2.8281 2.8281-6.7305 4.5742-11.047 4.5742-4.3125 0-8.2188-1.75-11.047-4.5742-2.8281-2.8281-4.5742-6.7305-4.5742-11.047 0-4.3125 1.75-8.2188 4.5742-11.047 2.8281-2.8281 6.7305-4.5742 11.047-4.5742 4.3125 0 8.2188 1.75 11.047 4.5742z"/>
<text fill="#000000" font-family="Arbeit Regular, Helvetica, Arial-Unicode, Arial, Sans-serif" font-weight="bold" font-size="5.0" y="117.5" x="0.0">Created by Alfin</text><text fill="#000000" font-family="Arbeit Regular, Helvetica, Arial-Unicode, Arial, Sans-serif" font-weight="bold" font-size="5.0" y="122.5" x="0.0">from Noun Project</text></svg>