<svg xml:space="preserve" viewBox="0 0 64.325 66.03" y="0px" x="0px" version="1.1" xmlns:xlink="http://www.w3.org/1999/xlink" xmlns="http://www.w3.org/2000/svg" style="max-height: 500px" width="64.325" height="66.03"><g><path d="M61.2,41.8l-8.5-8.5c-0.5-0.5-1.2-0.8-2-0.9c0-0.7-0.3-1.4-0.9-2l-1.4-1.4c-0.5-0.5-1.2-0.8-2-0.9c0-0.7-0.3-1.4-0.9-2   l-1.4-1.4c-0.5-0.5-1.2-0.8-2-0.9c0-0.7-0.3-1.4-0.9-2l-1.4-1.4c-0.5-0.5-1.2-0.8-2-0.9c0-0.7-0.3-1.4-0.9-2l-5.9-5.9   c-2.8-2.8-6.4-4.3-10.4-4.3h-0.4l-1,1L18,7.2l0,0c0.8-0.8,0.8-2,0-2.8l-2.8-2.8c-0.8-0.8-2-0.8-2.8,0l-9.9,9.9   c-0.8,0.8-0.8,2,0,2.8l2.8,2.8c0.4,0.4,0.9,0.6,1.4,0.6s1-0.2,1.4-0.6l0,0l1.4,1.4l-1,1v0.4c0,3.9,1.5,7.6,4.3,10.4l5.9,5.9   c0.5,0.5,1.2,0.8,2,0.9c0,0.7,0.3,1.4,0.9,2l1.4,1.4c0.5,0.5,1.2,0.8,2,0.9c0,0.7,0.3,1.4,0.9,2l1.4,1.4c0.5,0.5,1.2,0.8,2,0.9   c0,0.7,0.3,1.4,0.9,2l1.4,1.4c0.5,0.5,1.2,0.8,2,0.9c0,0.7,0.3,1.4,0.9,2l8.5,8.5c0.6,0.6,1.3,0.9,2.1,0.9c0.8,0,1.6-0.3,2.1-0.9   l14.1-14.1c0.6-0.6,0.9-1.3,0.9-2.1S61.7,42.4,61.2,41.8z M3.9,12.8l9.9-9.9l2.8,2.8l0,0l0,0l-9.9,9.9L3.9,12.8z M16.6,8.6L18,10   L11,17.1l-1.4-1.4L16.6,8.6z M59.7,44.6L45.6,58.8c-0.4,0.4-1,0.4-1.4,0l-8.5-8.5c-0.4-0.4-0.4-1,0-1.4l2.8-2.8l-1.4-1.4l-2.8,2.8   c-0.4,0.4-1,0.4-1.4,0l-1.4-1.4c-0.2-0.2-0.3-0.4-0.3-0.7s0.1-0.5,0.3-0.7l-0.7-0.7l0.7,0.7l2.8-2.8l-1.4-1.4L30,43.2l0,0   c-0.4,0.4-1,0.4-1.4,0l-1.4-1.4c-0.2-0.2-0.3-0.4-0.3-0.7s0.1-0.5,0.3-0.7l0,0l2.8-2.8l-1.4-1.4L25.8,39l0,0c-0.4,0.4-1,0.4-1.4,0   L23,37.6c-0.4-0.4-0.4-1,0-1.4l2.8-2.8l-1.4-1.4l-2.8,2.8c-0.2,0.2-0.4,0.3-0.7,0.3c-0.3,0-0.5-0.1-0.7-0.3l-5.9-5.9   c-2.3-2.3-3.6-5.3-3.7-8.5L21.3,9.6c3.2,0.1,6.2,1.4,8.5,3.7l5.9,5.9c0.4,0.4,0.4,1,0,1.4l0,0l-2.8,2.8l1.4,1.4l2.8-2.8l-0.7-0.7   l0.7,0.7c0.4-0.4,1-0.4,1.4,0l1.4,1.4c0.4,0.4,0.4,1,0,1.4l-2.8,2.8l1.4,1.4l2.8-2.8c0.4-0.4,1-0.4,1.4,0l1.4,1.4   c0.4,0.4,0.4,1,0,1.4l0,0l-2.8,2.8l1.4,1.4l2.8-2.8l-0.7-0.7l0.7,0.7c0.4-0.4,1-0.4,1.4,0l1.4,1.4c0.2,0.2,0.3,0.4,0.3,0.7   s-0.1,0.5-0.3,0.7l-2.8,2.8l1.4,1.4l2.8-2.8c0.4-0.4,1-0.4,1.4,0l8.5,8.5c0.2,0.2,0.3,0.4,0.3,0.7S59.9,44.5,59.7,44.6z"/><path d="M8,37.3l-0.8,1.2C6.4,39.6,0,49,0,53.1c0,4.4,3.6,8,8,8s8-3.6,8-8c0-4.1-6.4-13.5-7.2-14.6L8,37.3z M8,59.1   c-3.3,0-6-2.7-6-6c0-2.6,3.8-8.8,6-12.2c2.2,3.4,6,9.7,6,12.2C14,56.4,11.3,59.1,8,59.1z"/></g><text font-family="'Helvetica Neue', Helvetica, Arial-Unicode, Arial, Sans-serif" font-weight="bold" font-size="5px" fill="#000000" y="77" x="0">Created by ProSymbols</text><text font-family="'Helvetica Neue', Helvetica, Arial-Unicode, Arial, Sans-serif" font-weight="bold" font-size="5px" fill="#000000" y="82" x="0">from the Noun Project</text></svg>